<svg xmlns="http://www.w3.org/2000/svg" width="1200" height="720" viewBox="0 0 1200 720" fill="none" preserveAspectRatio="xMidYMid meet" role="img" aria-label="Beacon portfolio dashboard screenshot">
  <defs>
    <linearGradient id="dash-sidebar" x1="0" y1="0" x2="0" y2="1">
      <stop offset="0%" stop-color="#0c1222"/>
      <stop offset="100%" stop-color="#0f1a2e"/>
    </linearGradient>
    <clipPath id="dash-viewport">
      <rect width="1200" height="720"/>
    </clipPath>
  </defs>

  <g clip-path="url(#dash-viewport)">
    <rect width="1200" height="720" fill="#f0f4f8"/>

    <!-- Sidebar -->
    <rect width="220" height="720" fill="url(#dash-sidebar)"/>
    <rect x="0" y="0" width="3" height="720" fill="#0d9488" opacity="0.85"/>
    <g transform="translate(18 22) scale(0.36)">
      <g stroke="#22E8F8" stroke-width="5.5" stroke-linecap="round" stroke-linejoin="round">
        <path d="M50 27V9" />
        <path d="M50 27L34 13" />
        <path d="M50 27L66 13" />
        <rect x="38" y="27" width="24" height="24" fill="none" />
        <path d="M24 90h52l-12-34H36L24 90z" fill="none" />
        <path d="M29 80h32v-8H33v-8h28" />
      </g>
      <rect x="44" y="33" width="12" height="12" fill="#22E8F8" />
    </g>
    <text x="62" y="36" fill="#fff" font-family="system-ui,sans-serif" font-size="14" font-weight="700">Beacon</text>
    <text x="62" y="52" fill="#94a3b8" font-family="system-ui,sans-serif" font-size="10">Risk Intelligence</text>

    <rect x="12" y="82" width="196" height="36" rx="8" fill="#0d9488" fill-opacity="0.18"/>
    <text x="40" y="105" fill="#5eead4" font-family="system-ui,sans-serif" font-size="13" font-weight="600">Portfolio</text>
    <text x="40" y="138" fill="#94a3b8" font-family="system-ui,sans-serif" font-size="13">Connections</text>
    <text x="40" y="168" fill="#94a3b8" font-family="system-ui,sans-serif" font-size="13">Settings</text>

    <!-- Main -->
    <rect x="220" y="0" width="980" height="720" fill="#f8fafc"/>
    <rect x="220" y="0" width="980" height="64" fill="#fff"/>
    <line x1="220" y1="64" x2="1200" y2="64" stroke="#e2e8f0"/>

    <text x="244" y="30" fill="#94a3b8" font-family="system-ui,sans-serif" font-size="11">Implementation Risk Center</text>
    <text x="244" y="52" fill="#0f172a" font-family="system-ui,sans-serif" font-size="20" font-weight="700">Your implementation portfolio</text>
    <rect x="1020" y="16" width="148" height="32" rx="10" fill="#0d9488"/>
    <polygon points="1040,32 1048,28 1048,36" fill="#fff"/>
    <text x="1056" y="37" fill="#fff" font-family="system-ui,sans-serif" font-size="12" font-weight="600">Run analysis</text>

    <!-- Metric cards -->
    <g>
      <rect x="244" y="84" width="210" height="104" rx="14" fill="#fff" stroke="#e2e8f0"/>
      <rect x="244" y="84" width="210" height="4" rx="2" fill="#ef4444"/>
      <text x="262" y="114" fill="#64748b" font-family="system-ui,sans-serif" font-size="12" font-weight="600">AT RISK</text>
      <text x="262" y="152" fill="#dc2626" font-family="system-ui,sans-serif" font-size="34" font-weight="800">3</text>
      <text x="296" y="152" fill="#94a3b8" font-family="system-ui,sans-serif" font-size="20">/ 24</text>
      <text x="262" y="174" fill="#94a3b8" font-family="system-ui,sans-serif" font-size="11">need attention today</text>
    </g>
    <g>
      <rect x="472" y="84" width="210" height="104" rx="14" fill="#fff" stroke="#e2e8f0"/>
      <rect x="472" y="84" width="210" height="4" rx="2" fill="#f59e0b"/>
      <text x="490" y="114" fill="#64748b" font-family="system-ui,sans-serif" font-size="12" font-weight="600">REVENUE DELAYED</text>
      <text x="490" y="152" fill="#0f172a" font-family="system-ui,sans-serif" font-size="32" font-weight="800">$185K</text>
      <text x="490" y="174" fill="#94a3b8" font-family="system-ui,sans-serif" font-size="11">across at-risk go-lives</text>
    </g>
    <g>
      <rect x="700" y="84" width="210" height="104" rx="14" fill="#fff" stroke="#e2e8f0"/>
      <rect x="700" y="84" width="210" height="4" rx="2" fill="#0d9488"/>
      <text x="718" y="114" fill="#64748b" font-family="system-ui,sans-serif" font-size="12" font-weight="600">GO-LIVE CONFIDENCE</text>
      <text x="718" y="152" fill="#0f172a" font-family="system-ui,sans-serif" font-size="34" font-weight="800">72%</text>
      <text x="718" y="174" fill="#94a3b8" font-family="system-ui,sans-serif" font-size="11">portfolio average</text>
    </g>
    <g>
      <rect x="928" y="84" width="248" height="104" rx="14" fill="#fff" stroke="#e2e8f0"/>
      <rect x="928" y="84" width="248" height="4" rx="2" fill="#8b5cf6"/>
      <text x="946" y="114" fill="#64748b" font-family="system-ui,sans-serif" font-size="12" font-weight="600">AVG TIME TO GO-LIVE</text>
      <text x="946" y="152" fill="#0f172a" font-family="system-ui,sans-serif" font-size="34" font-weight="800">47 days</text>
      <text x="946" y="174" fill="#10b981" font-family="system-ui,sans-serif" font-size="11">8% faster than last quarter</text>
    </g>

    <!-- Section title -->
    <text x="244" y="218" fill="#0f172a" font-family="system-ui,sans-serif" font-size="16" font-weight="700">Projects needing attention</text>
    <rect x="468" y="202" width="28" height="22" rx="11" fill="#fee2e2"/>
    <text x="476" y="217" fill="#dc2626" font-family="system-ui,sans-serif" font-size="12" font-weight="700">3</text>

    <!-- Risk rows -->
    <g>
      <rect x="244" y="236" width="932" height="96" rx="14" fill="#fff7ed" stroke="#fed7aa"/>
      <rect x="244" y="236" width="5" height="96" rx="3" fill="#ef4444"/>
      <rect x="264" y="252" width="68" height="22" rx="11" fill="#fee2e2" stroke="#fecaca"/>
      <text x="276" y="267" fill="#dc2626" font-family="system-ui,sans-serif" font-size="11" font-weight="700">Critical</text>
      <text x="348" y="262" fill="#0f172a" font-family="system-ui,sans-serif" font-size="17" font-weight="700">Acme Corp</text>
      <text x="348" y="282" fill="#64748b" font-family="system-ui,sans-serif" font-size="12">Security review inactive for 18 days</text>
      <text x="1088" y="262" fill="#dc2626" font-family="system-ui,sans-serif" font-size="22" font-weight="800" text-anchor="end">92</text>
      <text x="264" y="312" fill="#b45309" font-family="system-ui,sans-serif" font-size="12" font-weight="600">Delay ~14 days</text>
      <text x="420" y="312" fill="#be123c" font-family="system-ui,sans-serif" font-size="12" font-weight="600">$45K ARR at risk</text>
    </g>
    <g>
      <rect x="244" y="346" width="932" height="88" rx="14" fill="#fff" stroke="#e2e8f0"/>
      <rect x="244" y="346" width="5" height="88" rx="3" fill="#f59e0b"/>
      <rect x="264" y="360" width="54" height="22" rx="11" fill="#fffbeb" stroke="#fde68a"/>
      <text x="276" y="375" fill="#d97706" font-family="system-ui,sans-serif" font-size="11" font-weight="700">High</text>
      <text x="334" y="370" fill="#0f172a" font-family="system-ui,sans-serif" font-size="17" font-weight="700">Northwind SaaS</text>
      <text x="334" y="390" fill="#64748b" font-family="system-ui,sans-serif" font-size="12">Milestone overdue on critical path</text>
      <text x="1088" y="370" fill="#d97706" font-family="system-ui,sans-serif" font-size="22" font-weight="800" text-anchor="end">78</text>
      <text x="264" y="416" fill="#b45309" font-family="system-ui,sans-serif" font-size="12">Delay ~9 days (80% CI)</text>
    </g>
    <g>
      <rect x="244" y="448" width="932" height="88" rx="14" fill="#fff" stroke="#e2e8f0"/>
      <rect x="244" y="448" width="5" height="88" rx="3" fill="#eab308"/>
      <rect x="264" y="462" width="68" height="22" rx="11" fill="#fefce8" stroke="#fef08a"/>
      <text x="276" y="477" fill="#854d0e" font-family="system-ui,sans-serif" font-size="11" font-weight="700">Medium</text>
      <text x="348" y="472" fill="#0f172a" font-family="system-ui,sans-serif" font-size="17" font-weight="700">TechVentures Inc</text>
      <text x="348" y="492" fill="#64748b" font-family="system-ui,sans-serif" font-size="12">Customer response delay on Slack</text>
      <text x="1088" y="472" fill="#854d0e" font-family="system-ui,sans-serif" font-size="22" font-weight="800" text-anchor="end">54</text>
    </g>

    <!-- Bottom panels -->
    <rect x="244" y="556" width="448" height="140" rx="14" fill="#fff" stroke="#e2e8f0"/>
    <text x="264" y="584" fill="#0f172a" font-family="system-ui,sans-serif" font-size="14" font-weight="600">Risk trend (4 weeks)</text>
    <polyline points="280,660 330,636 380,648 430,620 480,632" fill="none" stroke="#0d9488" stroke-width="2.5" stroke-linecap="round" stroke-linejoin="round"/>
    <circle cx="280" cy="660" r="4" fill="#0d9488"/>
    <circle cx="430" cy="620" r="5" fill="#ef4444"/>
    <rect x="300" y="648" width="24" height="40" rx="4" fill="#f59e0b" fill-opacity="0.45"/>
    <rect x="340" y="632" width="24" height="56" rx="4" fill="#f59e0b" fill-opacity="0.55"/>
    <rect x="380" y="642" width="24" height="46" rx="4" fill="#f59e0b" fill-opacity="0.65"/>
    <rect x="420" y="618" width="24" height="70" rx="4" fill="#ef4444" fill-opacity="0.55"/>

    <rect x="712" y="556" width="464" height="140" rx="14" fill="#fff" stroke="#e2e8f0"/>
    <text x="732" y="584" fill="#0f172a" font-family="system-ui,sans-serif" font-size="14" font-weight="600">Integration health</text>
    <rect x="732" y="602" width="96" height="72" rx="10" fill="#f0f9ff" stroke="#bae6fd"/>
    <text x="780" y="636" fill="#0ea5e9" font-family="system-ui,sans-serif" font-size="13" font-weight="700" text-anchor="middle">Salesforce</text>
    <circle cx="804" cy="656" r="4" fill="#16a34a"/>
    <text x="814" y="660" fill="#16a34a" font-family="system-ui,sans-serif" font-size="10">Live</text>
    <rect x="840" y="602" width="96" height="72" rx="10" fill="#eef2ff" stroke="#c7d2fe"/>
    <text x="888" y="636" fill="#4f46e5" font-family="system-ui,sans-serif" font-size="13" font-weight="700" text-anchor="middle">Jira</text>
    <circle cx="912" cy="656" r="4" fill="#16a34a"/>
    <text x="922" y="660" fill="#16a34a" font-family="system-ui,sans-serif" font-size="10">Live</text>
    <rect x="948" y="602" width="96" height="72" rx="10" fill="#f5f3ff" stroke="#ddd6fe"/>
    <text x="996" y="636" fill="#7c3aed" font-family="system-ui,sans-serif" font-size="13" font-weight="700" text-anchor="middle">Slack</text>
    <circle cx="1020" cy="656" r="4" fill="#16a34a"/>
    <text x="1030" y="660" fill="#16a34a" font-family="system-ui,sans-serif" font-size="10">Live</text>
    <rect x="1056" y="602" width="96" height="72" rx="10" fill="#f0fdf4" stroke="#bbf7d0"/>
    <text x="1104" y="636" fill="#16a34a" font-family="system-ui,sans-serif" font-size="13" font-weight="700" text-anchor="middle">Calendar</text>
    <circle cx="1128" cy="656" r="4" fill="#16a34a"/>
    <text x="1138" y="660" fill="#16a34a" font-family="system-ui,sans-serif" font-size="10">Live</text>
  </g>
</svg>
