<svg xmlns="http://www.w3.org/2000/svg" viewBox="0 0 1200 720" fill="none" role="img" aria-label="Beacon portfolio dashboard screenshot">
  <rect width="1200" height="720" fill="#F8FAFC"/>
  <rect width="220" height="720" fill="#FFFFFF"/>
  <rect x="220" width="980" height="720" fill="#F8FAFC"/>
  <rect x="220" width="980" height="64" fill="#FFFFFF"/>
  <line x1="220" y1="64" x2="1200" y2="64" stroke="#E2E8F0"/>
  <line x1="220" y1="0" x2="220" y2="720" stroke="#E2E8F0"/>
  <rect x="24" y="24" width="32" height="32" rx="8" fill="#0F766E"/>
  <text x="64" y="46" fill="#0F172A" font-family="system-ui,sans-serif" font-size="16" font-weight="600">Beacon</text>
  <rect x="16" y="88" width="188" height="40" rx="10" fill="#F0FDFA"/>
  <text x="32" y="114" fill="#0F766E" font-family="system-ui,sans-serif" font-size="14" font-weight="600">Portfolio</text>
  <text x="32" y="156" fill="#64748B" font-family="system-ui,sans-serif" font-size="14">Connections</text>
  <text x="32" y="188" fill="#64748B" font-family="system-ui,sans-serif" font-size="14">Settings</text>
  <text x="252" y="42" fill="#0F172A" font-family="system-ui,sans-serif" font-size="22" font-weight="600">Your implementation portfolio</text>
  <text x="252" y="68" fill="#64748B" font-family="system-ui,sans-serif" font-size="14">24 active implementations - 3 need attention today</text>
  <rect x="252" y="96" width="180" height="96" rx="16" fill="#FFFFFF" stroke="#E2E8F0"/>
  <rect x="448" y="96" width="180" height="96" rx="16" fill="#FFFFFF" stroke="#E2E8F0"/>
  <rect x="644" y="96" width="180" height="96" rx="16" fill="#FFFFFF" stroke="#E2E8F0"/>
  <rect x="840" y="96" width="180" height="96" rx="16" fill="#FFFFFF" stroke="#E2E8F0"/>
  <text x="272" y="128" fill="#64748B" font-family="system-ui,sans-serif" font-size="13">Active</text>
  <text x="272" y="168" fill="#0F172A" font-family="system-ui,sans-serif" font-size="28" font-weight="600">24</text>
  <text x="468" y="128" fill="#64748B" font-family="system-ui,sans-serif" font-size="13">At risk</text>
  <text x="468" y="168" fill="#D97706" font-family="system-ui,sans-serif" font-size="28" font-weight="600">3</text>
  <text x="664" y="128" fill="#64748B" font-family="system-ui,sans-serif" font-size="13">Revenue delayed</text>
  <text x="664" y="168" fill="#0F172A" font-family="system-ui,sans-serif" font-size="28" font-weight="600">$185K</text>
  <text x="860" y="128" fill="#64748B" font-family="system-ui,sans-serif" font-size="13">Confidence</text>
  <text x="860" y="168" fill="#0F172A" font-family="system-ui,sans-serif" font-size="28" font-weight="600">72%</text>
  <text x="252" y="240" fill="#0F172A" font-family="system-ui,sans-serif" font-size="16" font-weight="600">Projects that need attention</text>
  <rect x="252" y="260" width="768" height="96" rx="16" fill="#FFFBEB" stroke="#FDE68A"/>
  <text x="276" y="296" fill="#0F172A" font-family="system-ui,sans-serif" font-size="18" font-weight="600">Acme Corp</text>
  <rect x="900" y="278" width="96" height="28" rx="14" fill="#FEF3C7"/>
  <text x="918" y="297" fill="#92400E" font-family="system-ui,sans-serif" font-size="13" font-weight="600">High risk</text>
  <text x="276" y="328" fill="#475569" font-family="system-ui,sans-serif" font-size="14">Security review inactive 18 days - $45K ARR at risk</text>
  <rect x="252" y="372" width="768" height="96" rx="16" fill="#FFFFFF" stroke="#E2E8F0"/>
  <text x="276" y="408" fill="#0F172A" font-family="system-ui,sans-serif" font-size="18" font-weight="600">Northwind SaaS</text>
  <rect x="884" y="390" width="112" height="28" rx="14" fill="#FFEDD5"/>
  <text x="902" y="409" fill="#9A3412" font-family="system-ui,sans-serif" font-size="13" font-weight="600">Medium risk</text>
  <text x="276" y="440" fill="#475569" font-family="system-ui,sans-serif" font-size="14">Milestone overdue - Predicted delay 9 days (80% CI)</text>
  <rect x="252" y="484" width="768" height="96" rx="16" fill="#FFFFFF" stroke="#E2E8F0"/>
  <text x="276" y="520" fill="#0F172A" font-family="system-ui,sans-serif" font-size="18" font-weight="600">Globex Health</text>
  <rect x="908" y="502" width="88" height="28" rx="14" fill="#DCFCE7"/>
  <text x="926" y="521" fill="#166534" font-family="system-ui,sans-serif" font-size="13" font-weight="600">On track</text>
  <text x="276" y="552" fill="#475569" font-family="system-ui,sans-serif" font-size="14">Go-live in 12 days - Confidence 89%</text>
</svg>
