<svg xmlns="http://www.w3.org/2000/svg" viewBox="0 0 1200 720" fill="none" role="img" aria-label="Beacon integrations screenshot">
  <rect width="1200" height="720" fill="#F8FAFC"/>
  <rect width="220" height="720" fill="#FFFFFF"/>
  <line x1="220" y1="0" x2="220" y2="720" stroke="#E2E8F0"/>
  <rect x="24" y="24" width="32" height="32" rx="8" fill="#0F766E"/>
  <text x="64" y="46" fill="#0F172A" font-family="system-ui,sans-serif" font-size="16" font-weight="600">Beacon</text>
  <text x="252" y="42" fill="#0F172A" font-family="system-ui,sans-serif" font-size="22" font-weight="600">Connections</text>
  <text x="252" y="68" fill="#64748B" font-family="system-ui,sans-serif" font-size="14">Connect your stack in minutes. OAuth only, no rip-and-replace.</text>
  <rect x="252" y="104" width="360" height="180" rx="16" fill="#FFFFFF" stroke="#E2E8F0"/>
  <rect x="628" y="104" width="360" height="180" rx="16" fill="#FFFFFF" stroke="#E2E8F0"/>
  <rect x="252" y="304" width="360" height="180" rx="16" fill="#FFFFFF" stroke="#E2E8F0"/>
  <rect x="628" y="304" width="360" height="180" rx="16" fill="#FFFFFF" stroke="#E2E8F0"/>
  <circle cx="292" cy="152" r="24" fill="#EEF2FF"/>
  <text x="324" y="148" fill="#0F172A" font-family="system-ui,sans-serif" font-size="18" font-weight="600">Salesforce</text>
  <rect x="324" y="160" width="88" height="24" rx="12" fill="#DCFCE7"/>
  <text x="340" y="177" fill="#166534" font-family="system-ui,sans-serif" font-size="12" font-weight="600">Connected</text>
  <circle cx="668" cy="152" r="24" fill="#EFF6FF"/>
  <text x="700" y="148" fill="#0F172A" font-family="system-ui,sans-serif" font-size="18" font-weight="600">Jira</text>
  <rect x="700" y="160" width="88" height="24" rx="12" fill="#DCFCE7"/>
  <text x="716" y="177" fill="#166534" font-family="system-ui,sans-serif" font-size="12" font-weight="600">Connected</text>
  <circle cx="292" cy="352" r="24" fill="#F8FAFC"/>
  <text x="324" y="348" fill="#0F172A" font-family="system-ui,sans-serif" font-size="18" font-weight="600">Slack</text>
  <rect x="324" y="360" width="88" height="24" rx="12" fill="#DCFCE7"/>
  <text x="340" y="377" fill="#166534" font-family="system-ui,sans-serif" font-size="12" font-weight="600">Connected</text>
  <circle cx="668" cy="352" r="24" fill="#F0FDF4"/>
  <text x="700" y="348" fill="#0F172A" font-family="system-ui,sans-serif" font-size="18" font-weight="600">Google Calendar</text>
  <rect x="700" y="360" width="88" height="24" rx="12" fill="#DCFCE7"/>
  <text x="716" y="377" fill="#166534" font-family="system-ui,sans-serif" font-size="12" font-weight="600">Connected</text>
  <rect x="252" y="516" width="736" height="120" rx="16" fill="#F0FDFA" stroke="#99F6E4"/>
  <text x="276" y="556" fill="#0F766E" font-family="system-ui,sans-serif" font-size="16" font-weight="600">All integrations healthy</text>
  <text x="276" y="584" fill="#475569" font-family="system-ui,sans-serif" font-size="14">Last sync 4 minutes ago - Continuous signal evaluation active</text>
</svg>
