<svg xmlns="http://www.w3.org/2000/svg" width="1200" height="720" viewBox="0 0 1200 720" fill="none" preserveAspectRatio="xMidYMid meet" role="img" aria-label="Beacon project intelligence screenshot">
  <defs>
    <linearGradient id="proj-sidebar" x1="0" y1="0" x2="0" y2="1">
      <stop offset="0%" stop-color="#0c1222"/>
      <stop offset="100%" stop-color="#0f1a2e"/>
    </linearGradient>
    <clipPath id="proj-viewport">
      <rect width="1200" height="720"/>
    </clipPath>
  </defs>

  <g clip-path="url(#proj-viewport)">
    <rect width="1200" height="720" fill="#f0f4f8"/>

    <!-- Sidebar -->
    <rect width="220" height="720" fill="url(#proj-sidebar)"/>
    <rect x="0" y="0" width="3" height="720" fill="#0d9488" opacity="0.85"/>
    <g transform="translate(18 22) scale(0.36)">
      <g stroke="#22E8F8" stroke-width="5.5" stroke-linecap="round" stroke-linejoin="round">
        <path d="M50 27V9" />
        <path d="M50 27L34 13" />
        <path d="M50 27L66 13" />
        <rect x="38" y="27" width="24" height="24" fill="none" />
        <path d="M24 90h52l-12-34H36L24 90z" fill="none" />
        <path d="M29 80h32v-8H33v-8h28" />
      </g>
      <rect x="44" y="33" width="12" height="12" fill="#22E8F8" />
    </g>
    <text x="62" y="36" fill="#fff" font-family="system-ui,sans-serif" font-size="14" font-weight="700">Beacon</text>
    <text x="62" y="52" fill="#94a3b8" font-family="system-ui,sans-serif" font-size="10">Risk Intelligence</text>

    <text x="40" y="105" fill="#94a3b8" font-family="system-ui,sans-serif" font-size="13">Portfolio</text>
    <rect x="12" y="118" width="196" height="40" rx="8" fill="#0d9488" fill-opacity="0.18"/>
    <text x="40" y="143" fill="#5eead4" font-family="system-ui,sans-serif" font-size="13" font-weight="600">Acme Corp</text>
    <text x="40" y="176" fill="#94a3b8" font-family="system-ui,sans-serif" font-size="13">Connections</text>
    <text x="40" y="206" fill="#94a3b8" font-family="system-ui,sans-serif" font-size="13">Settings</text>

    <!-- Main -->
    <rect x="220" y="0" width="980" height="720" fill="#f8fafc"/>
    <rect x="220" y="0" width="980" height="64" fill="#fff"/>
    <line x1="220" y1="64" x2="1200" y2="64" stroke="#e2e8f0"/>

    <text x="244" y="30" fill="#94a3b8" font-family="system-ui,sans-serif" font-size="11">Portfolio / Acme Corp</text>
    <text x="244" y="52" fill="#0f172a" font-family="system-ui,sans-serif" font-size="20" font-weight="700">Implementation health</text>
    <rect x="968" y="16" width="120" height="32" rx="16" fill="#fee2e2" stroke="#fecaca"/>
    <circle cx="986" cy="32" r="5" fill="#ef4444"/>
    <text x="998" y="37" fill="#dc2626" font-family="system-ui,sans-serif" font-size="12" font-weight="700">Critical risk</text>
    <rect x="1100" y="16" width="44" height="32" rx="10" fill="#dc2626"/>
    <text x="1122" y="38" fill="#fff" font-family="system-ui,sans-serif" font-size="16" font-weight="800" text-anchor="middle">92</text>

    <!-- Overview + delay -->
    <rect x="244" y="84" width="360" height="136" rx="14" fill="#fff" stroke="#e2e8f0"/>
    <text x="264" y="112" fill="#0f172a" font-family="system-ui,sans-serif" font-size="14" font-weight="700">Project overview</text>
    <line x1="264" y1="122" x2="584" y2="122" stroke="#f1f5f9"/>
    <text x="264" y="146" fill="#64748b" font-family="system-ui,sans-serif" font-size="11">Customer</text>
    <text x="360" y="146" fill="#0f172a" font-family="system-ui,sans-serif" font-size="12" font-weight="600">Acme Corporation</text>
    <text x="264" y="168" fill="#64748b" font-family="system-ui,sans-serif" font-size="11">Go-live</text>
    <text x="360" y="168" fill="#0f172a" font-family="system-ui,sans-serif" font-size="12" font-weight="600">Jul 15, 2026</text>
    <text x="264" y="190" fill="#64748b" font-family="system-ui,sans-serif" font-size="11">ARR</text>
    <text x="360" y="190" fill="#dc2626" font-family="system-ui,sans-serif" font-size="12" font-weight="700">$45,000</text>
    <text x="264" y="212" fill="#64748b" font-family="system-ui,sans-serif" font-size="11">Owner</text>
    <text x="360" y="212" fill="#0f172a" font-family="system-ui,sans-serif" font-size="12" font-weight="600">Sarah Chen</text>

    <rect x="620" y="84" width="556" height="136" rx="14" fill="#fff" stroke="#e2e8f0"/>
    <text x="640" y="112" fill="#0f172a" font-family="system-ui,sans-serif" font-size="14" font-weight="700">Predicted delay range</text>
    <line x1="640" y1="122" x2="1156" y2="122" stroke="#f1f5f9"/>
    <text x="640" y="146" fill="#64748b" font-family="system-ui,sans-serif" font-size="11">Most likely delay</text>
    <text x="640" y="178" fill="#dc2626" font-family="system-ui,sans-serif" font-size="34" font-weight="800">14 days</text>
    <rect x="640" y="194" width="500" height="10" rx="5" fill="#f1f5f9"/>
    <rect x="720" y="194" width="180" height="10" rx="5" fill="#f59e0b" fill-opacity="0.55"/>
    <rect x="800" y="194" width="60" height="10" rx="5" fill="#ef4444"/>
    <text x="640" y="212" fill="#94a3b8" font-family="system-ui,sans-serif" font-size="10">Low 8d</text>
    <text x="800" y="212" fill="#dc2626" font-family="system-ui,sans-serif" font-size="10" font-weight="600">Most 14d</text>
    <text x="1080" y="212" fill="#94a3b8" font-family="system-ui,sans-serif" font-size="10" text-anchor="end">High 22d</text>

    <!-- Risks -->
    <rect x="244" y="236" width="360" height="248" rx="14" fill="#fff" stroke="#e2e8f0"/>
    <text x="264" y="264" fill="#0f172a" font-family="system-ui,sans-serif" font-size="14" font-weight="700">Detected risks</text>
    <rect x="264" y="278" width="320" height="84" rx="10" fill="#fef2f2" stroke="#fecaca"/>
    <text x="276" y="300" fill="#dc2626" font-family="system-ui,sans-serif" font-size="11" font-weight="700">Critical</text>
    <text x="276" y="320" fill="#0f172a" font-family="system-ui,sans-serif" font-size="13" font-weight="600">Security review stalled</text>
    <text x="276" y="340" fill="#64748b" font-family="system-ui,sans-serif" font-size="11">No activity for 18 days</text>
    <rect x="264" y="372" width="320" height="72" rx="10" fill="#fefce8" stroke="#fef08a"/>
    <text x="276" y="394" fill="#854d0e" font-family="system-ui,sans-serif" font-size="11" font-weight="700">Medium</text>
    <text x="276" y="414" fill="#0f172a" font-family="system-ui,sans-serif" font-size="13" font-weight="600">API milestone unassigned</text>
    <text x="276" y="434" fill="#64748b" font-family="system-ui,sans-serif" font-size="11">Source: Jira</text>

    <!-- Actions -->
    <rect x="244" y="500" width="360" height="196" rx="14" fill="#fff" stroke="#e2e8f0"/>
    <text x="264" y="528" fill="#0f172a" font-family="system-ui,sans-serif" font-size="14" font-weight="700">Recommended actions</text>
    <circle cx="274" cy="552" r="9" fill="#0d9488"/>
    <text x="270" y="556" fill="#fff" font-family="system-ui,sans-serif" font-size="10" font-weight="700">1</text>
    <text x="292" y="548" fill="#0f172a" font-family="system-ui,sans-serif" font-size="12" font-weight="600">Escalate to customer security owner</text>
    <text x="292" y="564" fill="#64748b" font-family="system-ui,sans-serif" font-size="11">Contact Marcus Webb (CISO)</text>
    <circle cx="274" cy="592" r="9" fill="#0d9488"/>
    <text x="270" y="596" fill="#fff" font-family="system-ui,sans-serif" font-size="10" font-weight="700">2</text>
    <text x="292" y="588" fill="#0f172a" font-family="system-ui,sans-serif" font-size="12" font-weight="600">Assign API milestone owner</text>
    <text x="292" y="604" fill="#64748b" font-family="system-ui,sans-serif" font-size="11">Rebalance from Jira backlog</text>
    <circle cx="274" cy="632" r="9" fill="#f59e0b"/>
    <text x="270" y="636" fill="#fff" font-family="system-ui,sans-serif" font-size="10" font-weight="700">3</text>
    <text x="292" y="628" fill="#0f172a" font-family="system-ui,sans-serif" font-size="12" font-weight="600">Schedule executive check-in</text>
    <text x="292" y="644" fill="#64748b" font-family="system-ui,sans-serif" font-size="11">No exec touchpoint in 3 weeks</text>

    <!-- Timeline -->
    <rect x="620" y="236" width="556" height="460" rx="14" fill="#fff" stroke="#e2e8f0"/>
    <text x="640" y="264" fill="#0f172a" font-family="system-ui,sans-serif" font-size="14" font-weight="700">Activity timeline</text>
    <line x1="660" y1="286" x2="660" y2="672" stroke="#99f6e4" stroke-width="2" stroke-dasharray="4 4"/>

    <circle cx="660" cy="312" r="7" fill="#7c3aed"/>
    <text x="678" y="308" fill="#64748b" font-family="system-ui,sans-serif" font-size="10">Jun 5 · Slack</text>
    <text x="678" y="324" fill="#0f172a" font-family="system-ui,sans-serif" font-size="12" font-weight="600">Security questionnaire sent</text>

    <circle cx="660" cy="362" r="7" fill="#ef4444"/>
    <text x="678" y="358" fill="#64748b" font-family="system-ui,sans-serif" font-size="10">Jun 7 · Jira</text>
    <text x="678" y="374" fill="#0f172a" font-family="system-ui,sans-serif" font-size="12" font-weight="600">Ticket stalled — 18 days idle</text>
    <text x="678" y="390" fill="#dc2626" font-family="system-ui,sans-serif" font-size="11">Flagged as risk signal</text>

    <circle cx="660" cy="428" r="7" fill="#0ea5e9"/>
    <text x="678" y="424" fill="#64748b" font-family="system-ui,sans-serif" font-size="10">Jun 1 · Salesforce</text>
    <text x="678" y="440" fill="#0f172a" font-family="system-ui,sans-serif" font-size="12" font-weight="600">Go-live date confirmed: Jul 15</text>

    <circle cx="660" cy="488" r="7" fill="#16a34a"/>
    <text x="678" y="484" fill="#64748b" font-family="system-ui,sans-serif" font-size="10">May 28 · Calendar</text>
    <text x="678" y="500" fill="#0f172a" font-family="system-ui,sans-serif" font-size="12" font-weight="600">Kickoff call — 8 attendees</text>

    <circle cx="660" cy="548" r="7" fill="#0ea5e9"/>
    <text x="678" y="544" fill="#64748b" font-family="system-ui,sans-serif" font-size="10">May 18 · Salesforce</text>
    <text x="678" y="560" fill="#0f172a" font-family="system-ui,sans-serif" font-size="12" font-weight="600">Contract signed — $45K ARR</text>

    <text x="898" y="676" fill="#0d9488" font-family="system-ui,sans-serif" font-size="12" font-weight="600" text-anchor="middle">Load older events</text>
  </g>
</svg>
